<svg xmlns="http://www.w3.org/2000/svg" viewBox="0 0 900 520">
  <defs><linearGradient id="g" x1="0" x2="1" y1="0" y2="1"><stop stop-color="#00c7d9"/><stop offset=".5" stop-color="#083f75"/><stop offset="1" stop-color="#060b38"/></linearGradient></defs>
  <rect width="900" height="520" fill="url(#g)"/>
  <g opacity=".35" fill="none" stroke="#fff" stroke-width="3"><circle cx="760" cy="110" r="80"/><circle cx="120" cy="420" r="130"/><path d="M0 370 C180 310 300 440 470 360 S760 260 900 330"/></g>
  <text x="54" y="105" font-family="Arial Black,Arial" font-size="74" fill="#fff">CERAMIC HD</text>
  <rect x="56" y="145" width="760" height="47" rx="6" fill="#00df9a"/><rect x="56" y="210" width="760" height="47" rx="6" fill="#ff384d"/><rect x="56" y="275" width="760" height="47" rx="6" fill="#079de8"/><rect x="56" y="340" width="760" height="47" rx="6" fill="#fff"/><rect x="56" y="405" width="760" height="47" rx="6" fill="#fff43d"/>
  <g font-family="Arial Black,Arial" font-size="31"><text x="82" y="179" fill="#08324c">1 OPERATING INSTRUCTIONS</text><text x="82" y="244" fill="#fff">2 BLEEDING WHEEL CLEANER</text><text x="82" y="309" fill="#fff">3 HOT ACTIVE SNOW FOAM</text><text x="82" y="374" fill="#0b1238">4 TRAFFIC FILM REMOVER</text><text x="82" y="439" fill="#0b1238">5 HOT FOAM BRUSH</text></g>
</svg>
